HIERARCHY
ROOT Hips
{
  OFFSET 0 0 0
  CHANNELS 6 Xposition Yposition Zposition Zrotation Yrotation Xrotation
  JOINT LeftThigh
  {
    OFFSET 8.409438 0 -5.917753
    CHANNELS 3 Zrotation Yrotation Xrotation
    JOINT LeftLeg
    {
      OFFSET 0 0 -42.358652
      CHANNELS 3 Zrotation Yrotation Xrotation
      JOINT LeftFoot
      {
        OFFSET 0 0 -39.357303
        CHANNELS 3 Zrotation Yrotation Xrotation
      }
    }
  }
  JOINT RightThigh
  {
    OFFSET -8.409438 0 -5.917753
    CHANNELS 3 Zrotation Yrotation Xrotation
    JOINT RightLeg
    {
      OFFSET 0 0 -42.358652
      CHANNELS 3 Zrotation Yrotation Xrotation
      JOINT RightFoot
      {
        OFFSET 0 0 -39.357303
        CHANNELS 3 Zrotation Yrotation Xrotation
      }
    }
  }
  JOINT SpineLow
  {
    OFFSET 0 0 4.719101
    CHANNELS 3 Zrotation Yrotation Xrotation
    JOINT SpineMid
    {
      OFFSET 0 0 12.899191
      CHANNELS 3 Zrotation Yrotation Xrotation
      JOINT Chest
      {
        OFFSET 0 0 12.899191
        CHANNELS 3 Zrotation Yrotation Xrotation
        JOINT LeftShoulder
        {
          OFFSET 7.550562 1.41573 9.438202
          CHANNELS 3 Zrotation Yrotation Xrotation
          JOINT LeftArm
          {
            OFFSET 9.155056 0 4.247191
            CHANNELS 3 Zrotation Yrotation Xrotation
            JOINT LeftForearm
            {
              OFFSET 0 0 25.771955
              CHANNELS 3 Zrotation Yrotation Xrotation
              JOINT LeftHand
              {
                OFFSET 0 0 25.197169
                CHANNELS 3 Zrotation Yrotation Xrotation
              }
            }
          }
        }
        JOINT RightShoulder
        {
          OFFSET -7.550562 1.41573 9.438202
          CHANNELS 3 Zrotation Yrotation Xrotation
          JOINT RightArm
          {
            OFFSET -9.155056 0 4.247191
            CHANNELS 3 Zrotation Yrotation Xrotation
            JOINT RightForearm
            {
              OFFSET 0 0 -25.771955
              CHANNELS 3 Zrotation Yrotation Xrotation
              JOINT RightHand
              {
                OFFSET 0 0 -25.197169
                CHANNELS 3 Zrotation Yrotation Xrotation
              }
            }
          }
        }
        JOINT Neck
        {
          OFFSET 0 0 15.101124
          CHANNELS 3 Zrotation Yrotation Xrotation
          JOINT Head
          {
            OFFSET 0 0 11.325843
            CHANNELS 3 Zrotation Yrotation Xrotation
            End Site
            {
              OFFSET 0 0 14.157303
            }
          }
        }
      }
    }
  }
}
MOTION
Frames: 5
Frame Time: 0.0
0.0  89.887642  0.0  -13.858581  59.438896  -102.807571  -34.966968  -15.557649  -10.265222  -10.812263  3.184548  25.677097  7.507664  1.976856  5.178026  -43.874051  7.388359  10.846484  -8.986787  6.140066  7.694085  0.818558  -0.147332  0.077277  2.587735  -3.067689  -0.276724  7.143602  -8.344201  -1.090237  7.143601  -8.3442  -1.090237  -3.022252  24.458191  14.98267  150.612838  9.402936  172.974927  -33.761874  42.926748  83.383191  55.862167  -3.461652  16.828703  -4.367531  17.145786  5.675921  -96.072076  60.439488  -154.989915  -29.218627  14.201382  -112.834082  74.458302  9.379398  46.953396  -36.944859  7.687626  1.408682  -27.684491  5.705319  1.529818  
0.0  89.887642  0.0  -13.928171  59.341695  -102.804016  -34.767931  -15.646436  -10.332997  -10.791379  3.231806  25.750298  7.444664  1.941941  5.211744  -43.721259  7.271507  10.863757  -9.094753  6.138038  7.64874  0.800538  -0.138633  0.07522  2.610687  -3.073373  -0.283854  7.207745  -8.358471  -1.113352  7.207745  -8.358472  -1.113352  -3.138435  24.454361  14.990467  150.571622  9.403529  172.977804  -33.951142  43.062721  83.199632  55.648137  -3.460974  16.848275  -4.472585  17.180541  5.695814  -96.046145  60.451582  -154.860225  -29.291429  14.321618  -112.788881  74.512418  9.306574  46.922818  -36.954045  7.66158  1.362314  -27.691003  5.688504  1.493463  
0.0  89.887642  0.0  -14.056456  59.19191  -102.854469  -34.079721  -15.848821  -10.277355  -11.028082  3.333444  25.670724  7.280541  1.870517  5.186439  -43.536708  7.139359  10.896978  -9.383081  6.120969  7.597258  0.803955  -0.134787  0.067964  2.621047  -3.068915  -0.290796  7.236923  -8.345329  -1.133204  7.236922  -8.345328  -1.133203  -3.111275  24.289177  14.998795  150.597557  9.432985  172.990773  -33.855851  43.253236  83.090736  55.415601  -3.481782  16.783975  -4.400611  17.043016  5.774976  -96.271718  60.474616  -154.828088  -29.38458  14.443692  -112.790341  74.559236  9.214188  46.962997  -37.094138  7.635535  1.295763  -27.795289  5.672813  1.443633  
0.0  89.887642  0.0  -14.08608  59.059316  -102.782501  -33.664468  -15.914529  -10.389176  -11.068592  3.320402  25.719642  7.08441  1.815917  5.208573  -43.34535  6.978698  10.871561  -9.59123  6.151859  7.564224  0.822627  -0.125437  0.067478  2.63632  -3.069966  -0.292439  7.279116  -8.347698  -1.139769  7.279116  -8.347698  -1.139769  -3.223153  24.269363  14.970597  150.543845  9.422521  173.044858  -34.027798  43.394424  82.920127  55.264097  -3.501923  16.774333  -4.480444  17.067719  5.749285  -96.15798  60.4993  -154.610598  -29.45774  14.518694  -112.73491  74.566049  9.143513  46.905427  -37.097225  7.577117  1.232528  -27.797318  5.632658  1.392506  
0.0  89.887642  0.0  -14.06513  59.008326  -102.632652  -33.188399  -15.984602  -10.537676  -11.214447  3.314009  25.752838  6.835557  1.778008  5.179329  -43.401354  6.904091  10.744366  -9.675974  6.150731  7.551757  0.884314  -0.111992  0.073532  2.626816  -3.050097  -0.302587  7.253576  -8.292548  -1.164127  7.253576  -8.292547  -1.164126  -3.208835  24.099233  14.960991  150.493148  9.459027  173.147037  -34.149915  43.598512  82.681775  55.189282  -3.4695  16.772693  -4.456969  16.964181  5.781964  -96.365309  60.567828  -154.513737  -29.521585  14.472032  -112.793121  74.619934  9.049129  46.881916  -37.257388  7.527393  1.145937  -27.916616  5.600388  1.326358  
